<svg xmlns="http://www.w3.org/2000/svg" width="27.359" height="32.401" viewBox="0 0 27.359 32.401"><defs><style>.a{fill:#fff;}</style></defs><path class="a" d="M4.7,28.512a9.186,9.186,0,0,1,.432-2.305,13.716,13.716,0,0,1,3.114-5.689,13.532,13.532,0,0,1,5.31-3.707,7.092,7.092,0,0,1-2.844-5.8,7.013,7.013,0,0,1,2.25-5.256A7.455,7.455,0,0,1,18.311,3.6a7.458,7.458,0,0,1,5.346,2.16,7.013,7.013,0,0,1,2.25,5.256,7.124,7.124,0,0,1-2.772,5.76,14.092,14.092,0,0,1,6.371,4.571,11.146,11.146,0,0,1,2.556,7.128q0,3.313-2.628,3.817a4.12,4.12,0,0,1-.468.936,2.248,2.248,0,0,1-.846,1.026,5.345,5.345,0,0,1-1.746.738c-.745.191-1.338.336-1.782.431s-1.123.2-2.035.325-1.38.18-1.4.18a1.535,1.535,0,0,0-.252.035,1.627,1.627,0,0,1-.25.038H16.329a23.383,23.383,0,0,1-4.643-.6q-2.808-.592-3.2-1.6a3.7,3.7,0,0,1-.9-1.512,3.017,3.017,0,0,1-1.512-.756Q4.7,30.995,4.7,28.512Z" transform="translate(-4.702 -3.599)"/></svg>