<svg xmlns="http://www.w3.org/2000/svg" width="36" height="31.5" viewBox="0 0 36 31.5"><defs><style>.a{fill:#fff;}</style></defs><path class="a" d="M2.25,31.5A2.248,2.248,0,0,0,4.5,33.75h27a2.248,2.248,0,0,0,2.25-2.25V11.25H2.25ZM13.5,16.594a.846.846,0,0,1,.844-.844h7.313a.846.846,0,0,1,.844.844v.563a.846.846,0,0,1-.844.844H14.344a.846.846,0,0,1-.844-.844ZM33.75,2.25H2.25A2.248,2.248,0,0,0,0,4.5V7.875A1.128,1.128,0,0,0,1.125,9h33.75A1.128,1.128,0,0,0,36,7.875V4.5A2.248,2.248,0,0,0,33.75,2.25Z" transform="translate(0 -2.25)"/></svg>