<svg xmlns="http://www.w3.org/2000/svg" width="31.667" height="29" viewBox="0 0 31.667 29"><defs><style>.a{fill:#fff;}</style></defs><path class="a" d="M15.833,0C7.125,0,0,6.525,0,14.5S7.125,29,15.833,29s15.833-6.525,15.833-14.5S24.542,0,15.833,0Zm0,3.625c6.571,0,11.875,4.858,11.875,10.875S22.4,25.375,15.833,25.375,3.958,20.517,3.958,14.5,9.263,3.625,15.833,3.625Zm0,3.625a1.883,1.883,0,0,0-1.979,1.813,1.883,1.883,0,0,0,1.979,1.813,1.883,1.883,0,0,0,1.979-1.812A1.883,1.883,0,0,0,15.833,7.25ZM9.263,10.875A1.883,1.883,0,0,0,7.937,12.2,1.718,1.718,0,0,0,8.51,13.92l3.6,3.3a3.427,3.427,0,0,0-.238.906,3.814,3.814,0,0,0,3.958,3.625,3.814,3.814,0,0,0,3.958-3.625A3.814,3.814,0,0,0,15.833,14.5a4.328,4.328,0,0,0-.99.218l-3.6-3.3a2.084,2.084,0,0,0-1.742-.58,2.161,2.161,0,0,0-.238,0Zm12.508,0a1.883,1.883,0,0,0-1.979,1.813,1.987,1.987,0,0,0,3.958,0A1.883,1.883,0,0,0,21.771,10.875Z"/></svg>