<svg xmlns="http://www.w3.org/2000/svg" width="26.967" height="34.5" viewBox="0 0 26.967 34.5"><defs><style>.a{fill:#fff;}</style></defs><path class="a" d="M15.731,9.164V0H1.685A1.648,1.648,0,0,0,0,1.617V32.883A1.648,1.648,0,0,0,1.685,34.5h23.6a1.648,1.648,0,0,0,1.685-1.617v-22.1H17.416A1.657,1.657,0,0,1,15.731,9.164Zm4.494,15.9a.829.829,0,0,1-.843.809H7.584a.829.829,0,0,1-.843-.809v-.539a.829.829,0,0,1,.843-.809h11.8a.829.829,0,0,1,.843.809Zm0-4.312a.829.829,0,0,1-.843.809H7.584a.829.829,0,0,1-.843-.809v-.539a.829.829,0,0,1,.843-.809h11.8a.829.829,0,0,1,.843.809Zm0-4.852v.539a.829.829,0,0,1-.843.809H7.584a.829.829,0,0,1-.843-.809V15.9a.829.829,0,0,1,.843-.809h11.8A.829.829,0,0,1,20.225,15.9Zm6.742-7.688v.411H17.978V0h.428A1.721,1.721,0,0,1,19.6.472l6.875,6.6A1.58,1.58,0,0,1,26.967,8.214Z"/></svg>