<svg xmlns="http://www.w3.org/2000/svg" xmlns:xlink="http://www.w3.org/1999/xlink" width="33.104" height="34.409" viewBox="0 0 33.104 34.409"><defs><style>.a{fill:#666;}.b{filter:url(#a);}</style><filter id="a" x="0" y="0" width="33.104" height="34.409" filterUnits="userSpaceOnUse"><feOffset dy="3" input="SourceAlpha"/><feGaussianBlur stdDeviation="3" result="b"/><feFlood flood-color="#2eb4c9" flood-opacity="0.451"/><feComposite operator="in" in2="b"/><feComposite in="SourceGraphic"/></filter></defs><g class="b" transform="matrix(1, 0, 0, 1, 0, 0)"><path class="a" d="M12.492,11.264a6.859,6.859,0,0,0,.864-3.348A6.231,6.231,0,0,0,7.4,1.44,6.233,6.233,0,0,0,1.44,7.915a6.231,6.231,0,0,0,5.96,6.47,5.574,5.574,0,0,0,3.081-.939l4.053,4.4,2.01-2.185ZM7.4,11.92a3.86,3.86,0,0,1-3.686-4A3.862,3.862,0,0,1,7.4,3.914a3.863,3.863,0,0,1,3.687,4.006A3.863,3.863,0,0,1,7.4,11.92Z" transform="translate(7.56 4.56)"/></g></svg>