<svg xmlns="http://www.w3.org/2000/svg" width="31.664" height="29.333" viewBox="0 0 31.664 29.333"><defs><style>.a{fill:#fff;}</style></defs><path class="a" d="M34.656,30.316c-1.274-.4-3.356-.422-4.278-.734a6.428,6.428,0,0,1-1.98-.814c-.33-.352-.33-2.865-.33-2.865A4.715,4.715,0,0,0,29.195,24.5a13.987,13.987,0,0,0,.546-2.764s.751.281,1.047-1.045c.25-1.146.728-1.749.6-2.594s-.66-.643-.66-.643.66-.854.66-3.76c0-3-2.56-5.941-7.35-5.941s-7.361,2.955-7.361,5.941c0,2.905.649,3.76.649,3.76s-.535-.2-.66.643.341,1.448.6,2.594c.3,1.337,1.047,1.045,1.047,1.045a14.122,14.122,0,0,0,.546,2.764A4.715,4.715,0,0,0,19.99,25.9s0,2.513-.33,2.865a6.193,6.193,0,0,1-1.98.8c-.91.312-2.992.352-4.278.754s-5.211,2.232-5.211,6.755H39.856C39.867,32.548,35.93,30.718,34.656,30.316Z" transform="translate(-8.191 -7.748)"/></svg>